<?xml version="1.0" encoding="utf-8"?>
<!-- Generator: Adobe Illustrator 15.0.2, SVG Export Plug-In  -->
<!DOCTYPE svg PUBLIC "-//W3C//DTD SVG 1.1//EN" "http://www.w3.org/Graphics/SVG/1.1/DTD/svg11.dtd" [
	<!ENTITY ns_flows "http://ns.adobe.com/Flows/1.0/">
]>
<svg version="1.1"
	 xmlns="http://www.w3.org/2000/svg" xmlns:xlink="http://www.w3.org/1999/xlink" xmlns:a="http://ns.adobe.com/AdobeSVGViewerExtensions/3.0/"
	 x="0px" y="0px" width="330px" height="102px" viewBox="19.3334961 0 330 102" enable-background="new 19.3334961 0 330 102"
	 xml:space="preserve">
<defs>
</defs>
<g>
	<defs>
		<rect id="SVGID_1_" width="349.4833984" height="101.9951172"/>
	</defs>
	<clipPath id="SVGID_2_">
		<use xlink:href="#SVGID_1_"  overflow="visible"/>
	</clipPath>
	<g clip-path="url(#SVGID_2_)">
		<rect id="rect3_1_" x="276.4238281" y="8.050293" fill="#ED1C24" width="13.6982422" height="86.1040039"/>
		<path id="path5_1_" fill="#ED1C24" d="M60.1396484,5.8691406c-4.315918,0-7.9960938,2.6738281-9.4208984,6.4946289v0.0712891
			L26.3095703,94.1542969H40.940918l5.6381836-22.1962891h27.1918945l5.9238281,22.1962891h14.987793L69.6318359,12.3637695
			h-0.0712891C68.121582,8.5610352,64.4575195,5.8691406,60.1396484,5.8691406z M59.996582,24.6391602l9.4208984,35.8286133
			H50.7900391L59.996582,24.6391602z"/>
		<path id="path7_1_" fill="#ED1C24" d="M86.7607422,7.7246094v11.5620117h21.2685547v74.8676758h13.703125V19.2866211h21.3393555
			V7.7246094H86.7607422z"/>
		<path id="path9_1_" fill="#ED1C24" d="M247.9042969,62.8896484c-0.3994141-0.6826172-0.640625-1.5029297-0.640625-2.4130859
			c0-0.8251953,0.2099609-1.5722656,0.5332031-2.2128906c0.5068359-0.8027344,1.4160156-1.2558594,2.0234375-1.6416016
			c7.1298828-4.3359375,12.1953125-13.4506836,12.1953125-24.0068359c0-14.15625-8.9082031-25.7558594-19.9589844-26.6503906
			c-1.3769531-0.1806641-4.4853516-0.1625977-4.4853516-0.1625977h-15.5898438h0.0087891
			c-5.40625,0-9.8046875,5.8564453-9.8046875,13.0693359l0.0175781,0.0224609v75.2495117h13.3154297V24.2646484h-0.0068359
			c0-2.1899414,1.3339844-3.9765625,2.9726563-3.9765625h8.984375c0.8134766,0,3.2539063,0.0625,3.7373047,0.1538086v0.0043945
			c3.9707031,0.4370117,7.2001953,4.2084961,8.1367188,9.2001953c0.0488281,0.2050781,0.0849609,0.4082031,0.1132813,0.6132813
			c0,0.0180664,0,0.0400391,0,0.0444336c0.0517578,0.3056641,0.078125,0.5981445,0.1054688,0.8945313
			c0.0488281,0.4619141,0.0556641,0.9345703,0.0556641,1.4165039c0,4.5966797-1.8984375,8.6176758-4.7128906,10.703125
			c-0.5664063,0.4526367-1.1601563,0.8452148-1.7792969,1.1845703c-0.4423828,0.2651367-0.9550781,0.5126953-1.4902344,0.753418
			c-3.5957031,1.690918-5.1337891,2.6899414-6.6328125,4.6123047c-1.6816406,2.3461914-2.7460938,5.5180664-2.7744141,9.0219727
			c-0.0273438,3.2919922,0.8339844,6.3007813,2.296875,8.6337891l16.9150391,26.6298828h15.8398438L247.90625,62.8896484"/>
		<path id="path2852_1_" fill="#ED1C24" d="M170.8486328,5.8691406c-4.3134766,0-7.9956055,2.6738281-9.4208984,6.4946289v0.0712891
			L137.019043,94.1542969h14.6308594l5.6381836-22.1962891h27.1923828l5.9238281,22.1962891h14.9873047l-25.0507813-81.7905273
			h-0.0712891C178.8291016,8.5610352,175.1660156,5.8691406,170.8486328,5.8691406L170.8486328,5.8691406z M170.7055664,24.6391602
			l9.4213867,35.8286133h-18.6279297L170.7055664,24.6391602z"/>
	</g>
	<g display="none" clip-path="url(#SVGID_2_)">
		<path fill="#ED1C24" d="M84.1494141,93.7822266H65.5810547l-4.5795898-16.4628906H35.9970703l-4.8276367,16.4628906H12.6025391
			l23.1469727-76.621582c0.9067383-2.9711914,2.4326172-5.5083008,4.5795898-7.6132813
			c2.1450195-2.1040039,4.7041016-3.1557617,7.675293-3.1557617c3.2988281,0,6.1889648,1.1347656,8.6650391,3.4038086
			c2.4750977,2.2709961,4.2089844,5.0561523,5.1987305,8.3549805L84.1494141,93.7822266z M56.050293,61.3515625
			l-7.4267578-37.3833008L40.453125,61.3515625H56.050293z"/>
		<polygon fill="#ED1C24" points="131.6816406,24.0922852 115.4658203,24.0922852 115.4658203,93.7822266 97.2695313,93.7822266 
			97.2695313,24.0922852 80.9306641,24.0922852 80.9306641,7.753418 131.6816406,7.753418 		"/>
		<path fill="#ED1C24" d="M200.1318359,93.7822266h-18.5664063l-4.5800781-16.4628906H151.980957l-4.8276367,16.4628906h-18.5673828
			l23.1474609-76.621582c0.9067383-2.9711914,2.4326172-5.5083008,4.5795898-7.6132813
			c2.1450195-2.1040039,4.7041016-3.1557617,7.675293-3.1557617c3.2988281,0,6.1889648,1.1347656,8.6650391,3.4038086
			c2.4746094,2.2709961,4.2089844,5.0561523,5.1992188,8.3549805L200.1318359,93.7822266z M172.0341797,61.3515625
			l-7.4267578-37.3833008l-8.1704102,37.3833008H172.0341797z"/>
		<path fill="#ED1C24" d="M264.9941406,93.7822266h-21.0439453l-17.6992188-33.9169922
			c-0.8261719-1.6484375-1.5078125-3.1347656-2.0429688-4.4560547c-0.5380859-1.3183594-0.8056641-2.3515625-0.8056641-3.09375
			c0-3.7949219,2.9492188-6.9106445,8.8515625-9.3457031c5.8984375-2.4331055,8.8496094-5.4663086,8.8496094-9.0981445
			c0-2.2280273-0.8457031-4.4140625-2.5371094-6.5610352c-1.6914063-2.1450195-3.5273438-3.2177734-5.5087891-3.2177734h-10.3974609
			v69.6894531h-17.5771484V19.3886719c0-2.6401367,1.1943359-5.1992188,3.5898438-7.6738281
			c2.3916016-2.4760742,4.7851563-3.7143555,7.1787109-3.7143555h17.7021484c6.8476563,0,12.8310547,2.4750977,17.9482422,7.4272461
			c5.1152344,4.9506836,7.6748047,10.6879883,7.6748047,17.2060547c0,5.1987305-1.4658203,9.6137695-4.3955078,13.2446289
			c-2.9296875,3.6323242-6.953125,6.6430664-12.0673828,9.0366211L264.9941406,93.7822266z"/>
		<rect x="271.8017578" y="8" fill="#ED1C24" width="18.3203125" height="86.1542969"/>
	</g>
	<g clip-path="url(#SVGID_2_)">
		<path fill="#ED1C24" d="M326.9121094,94.0273438c-0.4921875,0-1.6337891-0.2900391-3.7255859-2.2265625
			c-1.7832031-1.6503906-3.5595703-3.3134766-5.3330078-4.9863281c-2.0009766-1.8916016-3.546875-2.7724609-4.8662109-2.7724609
			c-0.8017578,0-1.5449219,0.3193359-2.2099609,0.9521484c-0.6679688,0.6376953-1.0195313,1.4716797-1.0195313,2.4160156
			c0,0.9931641,0.3486328,1.8476563,1.0390625,2.5361328c0.4628906,0.4638672,1.0058594,0.7734375,1.6210938,0.9267578v3.0908203
			c-1.3896484-0.1953125-2.5917969-0.8310547-3.65625-1.9287109c-1.3066406-1.3496094-1.9433594-2.8847656-1.9433594-4.6943359
			c0-1.796875,0.6328125-3.2734375,1.9345703-4.5136719c1.3134766-1.2539063,2.8017578-1.8623047,4.5449219-1.8623047
			c1.8339844,0,3.6923828,0.8945313,5.5263672,2.6591797c2.0253906,1.9472656,3.9580078,3.8271484,5.7988281,5.6367188
			l1.5976563,1.5712891l0.0791016-9.8671875h2.8417969v11.765625c0,0.203125-0.2353516,0.4746094-0.6435547,0.7451172
			C327.9433594,93.8417969,327.4111328,94.0273438,326.9121094,94.0273438"/>
		<path fill="#ED1C24" d="M321.7978516,76.0253906c-0.4169922,0-1.578125-0.203125-4.6796875-1.5625
			c-2.4609375-1.0761719-4.9042969-2.2246094-7.2617188-3.4160156c-1.7558594-0.8847656-2.6152344-1.3330078-3.0371094-1.5585938
			v-3.5537109l8.7753906,4.1816406v-1.5039063c0-2.1474609,0.6142578-3.8652344,1.8769531-5.2519531
			c1.2402344-1.3613281,2.7802734-2.0224609,4.7060547-2.0224609c2.1142578,0,3.8300781,0.7470703,5.2451172,2.2851563
			c1.4365234,1.5605469,2.1337891,3.3740234,2.1337891,5.5419922c0,1.9580078-0.7548828,3.5458984-2.3066406,4.8544922
			C325.6513672,75.3691406,323.8671875,76.0253906,321.7978516,76.0253906 M322.3515625,64.5185547
			c-1.171875,0-2.1894531,0.4091797-3.0253906,1.2167969c-0.8476563,0.8173828-1.2763672,1.8085938-1.2763672,2.9462891
			c0,1.1357422,0.4697266,2.1201172,1.3984375,2.9277344c0.8867188,0.7734375,1.8408203,1.1660156,2.8339844,1.1660156
			c1.2558594,0,2.2646484-0.3896484,3.0009766-1.15625c0.7236328-0.7548828,1.0917969-1.7548828,1.0917969-2.9726563
			c0-1.2607422-0.4101563-2.2792969-1.21875-3.0283203C324.3671875,64.8876953,323.4228516,64.5185547,322.3515625,64.5185547"/>
		<path fill="#ED1C24" d="M318.3427734,57.5390625c-3.2910156,0-6.0039063-1.1230469-8.2929688-3.4326172
			c-2.2910156-2.3134766-3.4042969-4.9492188-3.4042969-8.0561523c0-3.0390625,1.1132813-5.6401367,3.4042969-7.9541016
			c2.2900391-2.3100586,4.8662109-3.434082,7.8779297-3.434082c2.9902344,0,5.5878906,1.0141602,7.9414063,3.097168
			c2.3193359,2.0537109,3.4462891,4.652832,3.4462891,7.9448242c0,3.2280273-0.9990234,5.9589844-3.0546875,8.3466797
			C324.2441406,56.3984375,321.6552734,57.5390625,318.3427734,57.5390625 M317.9277344,37.8442383
			c-2.0917969,0-3.9833984,0.8178711-5.6240234,2.4316406c-1.6445313,1.6181641-2.4775391,3.5141602-2.4775391,5.6352539
			c0,2.4047852,0.8730469,4.4448242,2.5957031,6.0649414c1.7080078,1.6040039,3.7001953,2.4174805,5.9208984,2.4174805
			c2.3447266,0,4.296875-0.8505859,5.8037109-2.5263672C325.625,50.2202148,326.375,48.2280273,326.375,45.9462891
			c0-2.2080078-0.7890625-4.1293945-2.3447266-5.7109375C322.4677734,38.6479492,320.4150391,37.8442383,317.9277344,37.8442383"/>
		<path fill="#ED1C24" d="M318.3427734,30.6904297c-3.2919922,0-6.0048828-1.1230469-8.2929688-3.4331055
			c-2.2910156-2.3129883-3.4042969-4.9487305-3.4042969-8.0556641c0-3.0390625,1.1132813-5.6401367,3.4042969-7.9541016
			c2.2900391-2.3100586,4.8671875-3.4331055,7.8779297-3.4331055c2.9902344,0,5.5888672,1.0131836,7.9414063,3.0961914
			c2.3193359,2.0537109,3.4462891,4.652832,3.4462891,7.9448242c0,3.2280273-0.9990234,5.9589844-3.0546875,8.3481445
			C324.2441406,29.550293,321.6552734,30.6904297,318.3427734,30.6904297 M317.9277344,10.9956055
			c-2.0917969,0-3.9824219,0.8178711-5.6240234,2.4321289c-1.6445313,1.6176758-2.4775391,3.5136719-2.4775391,5.6347656
			c0,2.4047852,0.8730469,4.4448242,2.5957031,6.0649414c1.7080078,1.6040039,3.7001953,2.4169922,5.9208984,2.4169922
			c2.3447266,0,4.296875-0.8500977,5.8037109-2.5258789C325.625,23.371582,326.375,21.3793945,326.375,19.0976563
			c0-2.2080078-0.7890625-4.1289063-2.3447266-5.7109375C322.4677734,11.7993164,320.4150391,10.9956055,317.9277344,10.9956055"/>
	</g>
	<path clip-path="url(#SVGID_2_)" d="M298.640625,5.6269531c0.6123047,0,1.2089844,0.1567383,1.7929688,0.472168
		c0.5830078,0.3139648,1.0371094,0.7626953,1.3632813,1.3476563c0.3251953,0.5849609,0.4882813,1.1953125,0.4882813,1.8291016
		c0,0.6289063-0.1611328,1.2329102-0.4814453,1.8129883s-0.7695313,1.0302734-1.3486328,1.3510742
		c-0.578125,0.3198242-1.1826172,0.4799805-1.8144531,0.4799805s-1.2363281-0.1601563-1.8144531-0.4799805
		c-0.5791016-0.3208008-1.0292969-0.7709961-1.3515625-1.3510742c-0.3212891-0.5800781-0.4824219-1.184082-0.4824219-1.8129883
		c0-0.6337891,0.1630859-1.2441406,0.4902344-1.8291016c0.3261719-0.5849609,0.78125-1.0336914,1.3652344-1.3476563
		C297.4306641,5.7836914,298.0283203,5.6269531,298.640625,5.6269531 M298.640625,6.2319336
		c-0.5126953,0-1.0107422,0.1308594-1.4960938,0.3930664c-0.484375,0.2626953-0.8632813,0.6376953-1.1376953,1.1269531
		c-0.2734375,0.487793-0.4111328,0.9960938-0.4111328,1.5239258c0,0.5258789,0.1347656,1.0288086,0.4033203,1.5112305
		c0.2685547,0.480957,0.6455078,0.8569336,1.1289063,1.1259766s0.9873047,0.402832,1.5126953,0.402832
		s1.0292969-0.1337891,1.5126953-0.402832s0.8583984-0.6450195,1.1259766-1.1259766
		c0.2675781-0.4824219,0.4013672-0.9853516,0.4013672-1.5112305c0-0.527832-0.1367188-1.0361328-0.4082031-1.5239258
		C301,7.2626953,300.6210938,6.8876953,300.1337891,6.625C299.6474609,6.362793,299.1503906,6.2319336,298.640625,6.2319336
		 M297.0410156,11.2919922v-3.925293h1.3476563c0.4609375,0,0.7939453,0.0371094,1.0009766,0.109375
		c0.2060547,0.0727539,0.3701172,0.1987305,0.4931641,0.3789063c0.1220703,0.1811523,0.1835938,0.3730469,0.1835938,0.5761719
		c0,0.2856445-0.1025391,0.5356445-0.3076172,0.7485352c-0.2041016,0.2124023-0.4755859,0.3320313-0.8134766,0.3574219
		c0.1386719,0.0576172,0.25,0.1279297,0.3339844,0.2080078c0.15625,0.1547852,0.3505859,0.4135742,0.5800781,0.777832
		l0.4775391,0.769043h-0.7724609l-0.3486328-0.6191406c-0.2734375-0.4858398-0.4951172-0.7910156-0.6621094-0.9130859
		c-0.1162109-0.0908203-0.2861328-0.1357422-0.5078125-0.1357422h-0.3720703v1.6679688H297.0410156z M297.6738281,9.0830078
		h0.7685547c0.3671875,0,0.6171875-0.0551758,0.7519531-0.1640625c0.1337891-0.1098633,0.2001953-0.2548828,0.2001953-0.4350586
		c0-0.1157227-0.0322266-0.2197266-0.0966797-0.3120117c-0.0644531-0.0917969-0.1542969-0.1601563-0.2675781-0.2050781
		c-0.1152344-0.0458984-0.3271484-0.0678711-0.6367188-0.0678711h-0.7197266V9.0830078z"/>
	<path clip-path="url(#SVGID_2_)" d="M334.8525391,11.6616211v-4.065918h-1.546875V6.8867188h3.9033203v0.7089844h-1.5595703
		v4.065918H334.8525391z M337.7421875,11.6616211V6.8867188h1.171875l1.2070313,3.8139648l1.1660156-3.8139648h1.1474609v4.7749023
		h-0.7255859V7.6533203l-1.2314453,4.0083008h-0.7197266l-1.2841797-4.065918v4.065918H337.7421875z"/>
</g>
</svg>
